<svg xmlns="http://www.w3.org/2000/svg" viewBox="0 0 10 10" xmlns:v="https://vecta.io/nano"><path d="M5 4.091v1.936h2.691c-.118.623-.473 1.15-1.005 1.505l1.623 1.259C9.254 7.918 9.8 6.636 9.8 5.114c0-.355-.032-.695-.091-1.023H5z" fill="#4285f4"/><path d="M2.198 5.952l-.366.28L.536 7.241C1.359 8.873 3.045 10 5 10c1.35 0 2.482-.445 3.309-1.209L6.686 7.532c-.445.3-1.014.482-1.686.482-1.3 0-2.404-.877-2.8-2.059l-.002-.003z" fill="#34a853"/><path d="M.536 2.759A4.94 4.94 0 0 0 0 5a4.94 4.94 0 0 0 .536 2.241C.536 7.246 2.2 5.95 2.2 5.95c-.1-.3-.159-.618-.159-.95s.059-.65.159-.95L.536 2.759z" fill="#fbbc05"/><path d="M5 1.991c.736 0 1.391.255 1.914.745l1.432-1.432C7.477.495 6.35 0 5 0A4.99 4.99 0 0 0 .536 2.759L2.2 4.05C2.595 2.868 3.7 1.991 5 1.991z" fill="#ea4335"/></svg>