<svg width="64" height="64" viewBox="0 0 64 64" fill="none" xmlns="http://www.w3.org/2000/svg">
<g clip-path="url(#clip0_308_99)">
<rect width="64" height="64" rx="32" fill="#E14594" fill-opacity="0.5"/>
<path d="M27.7787 39.4946C27.7787 39.4946 16.9913 41.4472 12.9748 47.1419C9.90394 51.4953 8 64.0001 8 64.0001H55.1579C55.1579 64.0001 53.1497 48.7102 49.343 45.1008C45.5363 41.4914 39.7518 40.6205 39.7518 40.6205L27.7787 39.4946Z" fill="#312A45"/>
<path d="M25.6998 39.9731C25.6998 39.9731 25.3905 45.6783 27.7549 47.929C30.1193 50.1796 34.9313 46.8613 34.9313 46.8613C34.9313 46.8613 37.0461 48.8197 39.3742 48.2259C41.7023 47.6321 40.8317 42.5614 39.3871 40.5867L25.6998 39.9731Z" fill="#4D7D80"/>
<path d="M37.8147 40.6202L28.4145 40.0438C24.8094 40.0438 19.7092 40.1603 18.6652 33.4701C18.4098 31.84 19.4244 26.3118 20.4063 24.5886C22.5492 20.8232 20.2739 20.8791 22.1638 15.0132C24.3536 8.21126 32.3232 10.4223 32.3232 10.4223C32.3232 10.4223 45.5394 14.1179 46.4299 17.9124C47.8042 23.7573 44.4908 22.3985 46.4299 26.7286C47.4024 28.8989 47.953 35.0303 45.2407 38.1984C43.2664 40.5049 40.2201 40.6202 37.8147 40.6202Z" fill="#9E3838"/>
<path d="M38.5203 41.928C36.1711 51.4254 26.9432 42.7221 26.5952 39.4946C28.0504 34.9537 27.563 30.0962 27.563 30.0962L38.6094 33.9804C38.5847 34.3006 38.5578 34.6219 38.532 34.9456C38.4149 36.4348 38.2977 37.9577 38.3375 39.5668C38.3564 40.3565 38.4174 41.1447 38.5203 41.928Z" fill="#E69680"/>
<path d="M38.3376 39.5664C32.5403 38.3066 28.7559 32.3872 28.7559 32.3872L38.5321 34.9487C38.4115 36.4344 38.2955 37.9573 38.3376 39.5664Z" fill="#161F29"/>
<path d="M40.9971 25.8345C40.9971 25.8345 41.8301 23.1321 44.0434 23.7259C46.2566 24.3197 46.4078 31.6188 42.2039 31.429L40.9971 25.8345Z" fill="#E06C5C"/>
<path d="M44.279 25.3446C44.279 25.5853 44.2669 25.8414 44.2427 26.1131C44.22 26.4143 44.1864 26.7309 44.1419 27.0632C44.0915 27.4416 44.0247 27.8386 43.9486 28.245C43.9033 28.491 43.8529 28.7394 43.7974 28.9901C42.9445 32.9011 41.2983 34.6953 39.4143 35.6093C36.3106 37.1159 28.6187 33.8628 27.4201 30.9695C26.553 28.8737 26.5671 29.7434 26.3363 24.1069C26.1055 18.4705 28.4171 15.3745 28.4171 15.3745C31.549 11.8082 37.1483 12.3473 40.7875 14.7004C44.4266 17.0535 44.3094 21.4453 44.279 25.3446Z" fill="#E69680"/>
<path d="M39.3745 30.5327C39.0645 30.5819 38.7495 30.5913 38.4371 30.5606C36.6082 30.3906 35.228 28.9515 35.1706 28.891C35.1331 28.8454 35.1144 28.7874 35.1182 28.7287C35.122 28.6699 35.148 28.6148 35.1911 28.5743C35.2341 28.5339 35.291 28.5112 35.3502 28.5107C35.4095 28.5103 35.4667 28.5322 35.5103 28.5719C35.5244 28.5859 36.8308 29.9447 38.4805 30.0972C40.1302 30.2497 40.6891 29.2298 40.6891 29.2193C40.7201 29.168 40.7697 29.1306 40.8278 29.1147C40.8858 29.0989 40.9477 29.1058 41.0008 29.1341C41.0538 29.1624 41.0938 29.2099 41.1126 29.2667C41.1313 29.3235 41.1273 29.3854 41.1015 29.4394C41.078 29.4836 40.6059 30.3254 39.3745 30.5327Z" fill="#302922"/>
<path d="M39.7948 31.8645C39.8591 31.8189 39.9209 31.7699 39.9799 31.7178C40.0404 31.6625 40.0762 31.5857 40.0796 31.5041C40.083 31.4226 40.0537 31.343 39.9981 31.2829C39.9705 31.2532 39.9374 31.2292 39.9005 31.2121C39.8636 31.1951 39.8237 31.1855 39.783 31.1839C39.701 31.1805 39.6209 31.2096 39.5605 31.2649C39.5241 31.2987 38.6911 32.0334 37.6284 31.6433C37.5507 31.6149 37.4649 31.6183 37.3897 31.6528C37.3146 31.6873 37.2563 31.7501 37.2277 31.8273C37.1991 31.9045 37.2026 31.9898 37.2373 32.0645C37.272 32.1391 37.3351 32.1971 37.4128 32.2255C38.5154 32.626 39.4187 32.1312 39.7948 31.8645Z" fill="#E06C5C"/>
<path d="M38.4216 28.1189C38.2803 28.134 38.1377 28.134 37.9963 28.1189C37.9267 28.1115 37.8629 28.0769 37.819 28.0228C37.775 27.9686 37.7545 27.8993 37.762 27.8302C37.7695 27.761 37.8043 27.6976 37.8588 27.6539C37.9132 27.6102 37.983 27.5899 38.0526 27.5973C38.2679 27.6177 38.4851 27.5936 38.6906 27.5265C38.8961 27.4593 39.0854 27.3506 39.2465 27.2072C38.4263 26.0895 37.9788 23.3021 37.9577 23.1764C37.9524 23.1423 37.9538 23.1076 37.962 23.0742C37.9702 23.0407 37.985 23.0092 38.0054 22.9814C38.0468 22.9253 38.1088 22.8878 38.1779 22.8771C38.2471 22.8665 38.3176 22.8835 38.3741 22.9246C38.4306 22.9656 38.4683 23.0273 38.4791 23.096C38.615 23.9623 39.1153 26.3561 39.789 27.0372C39.8346 27.0831 39.8617 27.144 39.8652 27.2084C39.8687 27.2727 39.8482 27.3362 39.8077 27.3865C39.4543 27.7945 38.9597 28.0559 38.4216 28.1189Z" fill="#161F29"/>
<path d="M36.1842 20.197C36.1842 20.197 34.7067 19.5357 33.3722 20.4741C32.6282 20.9981 33.0641 21.7712 34.026 21.3928C34.6985 21.1273 35.0711 21.0283 35.8421 21.0994C36.613 21.1704 36.5556 20.3134 36.1842 20.197Z" fill="#9E3838"/>
<path d="M40.5075 20.4195C40.5075 20.4195 42.0189 19.8374 43.2972 20.8527C44.0107 21.4162 43.5315 22.1649 42.5942 21.7329C41.938 21.4313 41.5713 21.3114 40.7969 21.3394C40.0224 21.3673 40.1302 20.515 40.5075 20.4195Z" fill="#9E3838"/>
<path d="M27.755 23.3899C27.755 23.3899 26.4334 21.1276 24.1229 22.1429C21.8124 23.1582 22.8704 31.1361 27.4199 30.235L27.755 23.3899Z" fill="#E69680"/>
<path d="M28.1525 19.0862C28.1525 19.0862 29.4355 21.607 28.7384 23.067C28.0412 24.5271 28.19 26.2585 28.19 26.2585C28.19 26.2585 25.5679 24.1231 26.2123 20.7326C26.8567 17.3421 28.1525 19.0862 28.1525 19.0862Z" fill="#9E3838"/>
<path d="M26.8049 27.1224C26.8191 27.1778 26.8107 27.2366 26.7815 27.2859C26.7523 27.3352 26.7047 27.371 26.649 27.3855C26.6338 27.39 26.618 27.3924 26.6022 27.3925C26.5526 27.3943 26.5038 27.3793 26.4639 27.3499C26.4241 27.3205 26.3956 27.2784 26.3831 27.2306C26.2238 26.7043 25.9676 26.212 25.6273 25.7787C25.1809 26.1769 24.8271 26.5449 24.8212 26.5495C24.8023 26.5701 24.7793 26.5865 24.7537 26.5979C24.7281 26.6094 24.7005 26.6155 24.6724 26.6159C24.6141 26.6178 24.5573 26.5969 24.5143 26.5577C24.4737 26.5169 24.451 26.4619 24.451 26.4046C24.451 26.3472 24.4737 26.2922 24.5143 26.2515C24.5295 26.2351 24.8845 25.8661 25.3415 25.4574C24.9692 25.0872 24.4944 24.8355 23.9777 24.7343C23.9211 24.7235 23.8712 24.6908 23.8389 24.6435C23.8066 24.5961 23.7945 24.5379 23.8054 24.4817C23.8163 24.4255 23.8492 24.3759 23.8969 24.3438C23.9446 24.3117 24.0031 24.2997 24.0597 24.3105C26.1511 24.7087 26.7791 27.0234 26.8049 27.1224Z" fill="#161F29"/>
<path d="M34.0748 8.01219C34.0748 8.01219 41.8733 7.55344 45.1797 12.2655C48.4861 16.9775 45.7187 21.2307 45.7187 21.2307C45.7187 21.2307 40.8762 22.1855 34.7637 15.5465C34.7637 15.5465 34.1779 20.9595 29.66 21.2307C25.1421 21.502 26.2048 17.2581 26.2048 17.2581C26.2048 17.2581 24.4742 9.265 34.0748 8.01219Z" fill="#9E3838"/>
<path d="M34.9316 24.5724C34.9316 25.1918 34.6329 25.6937 34.2638 25.6937C33.8947 25.6937 33.5959 25.1918 33.5959 24.5724C33.5959 23.953 33.8947 23.4512 34.2638 23.4512C34.6329 23.4512 34.9316 23.953 34.9316 24.5724Z" fill="#161F29"/>
<path d="M41.665 24.9054C41.665 25.5248 41.365 26.0267 40.9971 26.0267C40.6292 26.0267 40.3281 25.5248 40.3281 24.9054C40.3281 24.286 40.6281 23.7842 40.9971 23.7842C41.3662 23.7842 41.665 24.286 41.665 24.9054Z" fill="#161F29"/>
</g>
<defs>
<clipPath id="clip0_308_99">
<rect width="64" height="64" rx="32" fill="white"/>
</clipPath>
</defs>
</svg>
