<svg width="300" height="300" fill="none" xmlns="http://www.w3.org/2000/svg"><path d="M277.438 248.875c-15.799 21.351-35.765 31.024-46.712 36.171-63.021 29.637-153.97 15.613-200.841-45.563-6.5-8.484-31.033-42.517-29.843-90.856C1.656 83.26 49.773 12.916 120.853 1.555c70.667-11.295 122.7 42.318 131.786 52.118 48.794 52.606 64.661 141.334 24.799 195.202z" fill="#F4F7FA"/><path d="M121.497 260.63c-28.214-24.362-28.618-71.551-13.103-83.017 8.072-5.964 17.107.204 24.61-7.124 8.313-8.117 1.329-19.702 4.49-43.664 1.634-12.381 4.596-34.826 18.443-41.76 13.731-6.868 24.476 8.378 39.661 1.8 14.358-6.215 10.208-22.215 28.187-35.284 1.671-1.216 20.655-14.667 34.399-7.617 13.963 7.162 17.586 32.955 8.843 48.34-7.943 13.978-23.76 15.257-23.522 23.854.262 9.474 19.554 11.023 20.761 20.73 1.746 14.029-37.289 21.025-39.877 42.783-1.52 12.793 14.086 17.945 7.589 33.134-10.473 24.485-17.177 29.265-32.879 39.022-22.754 14.139-53.148 29.92-77.602 8.803z" fill="#D8DEE8"/><mask id="prefix__a" style="mask-type:luminance" maskUnits="userSpaceOnUse" x="98" y="41" width="174" height="230"><path d="M121.497 260.63c-28.214-24.362-28.618-71.551-13.103-83.017 8.072-5.964 17.107.204 24.61-7.124 8.313-8.117 1.329-19.702 4.49-43.664 1.634-12.381 4.596-34.826 18.443-41.76 13.731-6.868 24.476 8.378 39.661 1.8 14.358-6.215 10.208-22.215 28.187-35.284 1.671-1.216 20.655-14.667 34.399-7.617 13.963 7.162 17.586 32.955 8.843 48.34-7.943 13.978-23.76 15.257-23.522 23.854.262 9.474 19.554 11.023 20.761 20.73 1.746 14.029-37.289 21.025-39.877 42.783-1.52 12.793 14.086 17.945 7.589 33.134-10.473 24.485-17.177 29.265-32.879 39.022-22.754 14.139-53.148 29.92-77.602 8.803z" fill="#fff"/></mask><g style="mix-blend-mode:soft-light" opacity=".7" fill="#fff" mask="url(#prefix__a)"><path d="M135.224 282.219l-1.118-.388c15.076-43.095 31.718-82.871 49.454-118.222 14.194-28.29 29.123-53.822 44.369-75.894 25.981-37.613 44.145-52.335 44.325-52.48l.741.92c-.18.144-18.246 14.795-44.14 52.293-23.9 34.62-59.546 96.335-93.631 193.771z"/><path d="M225.565 91.407c-3.475-36.363 10.783-64.578 10.927-64.854l1.054.536c-.147.274-14.247 28.199-10.802 64.206l-1.179.112zM180.914 168.625c-15.978-36.474-19.403-61.676-19.463-76.394-.065-16.033 3.636-23.312 3.793-23.614l1.051.542c-.037.073-3.744 7.406-3.659 23.198.077 14.592 3.501 39.587 19.363 75.797l-1.085.471zM147.759 245.56c-41.614-55.884-39.841-96.865-39.816-97.275l1.184.065c0 .107-.431 10.727 4.52 28.315 4.365 15.486 13.992 39.888 35.065 68.19l-.953.705zM199.306 158.719c-4.155.352-8.328.464-12.496.337l.037-1.179c27.719.868 52.506-9.497 68.417-18.346 17.248-9.592 28.058-19.502 28.165-19.61l.805.865c-.108.1-11.022 10.108-28.393 19.769-13.61 7.576-33.671 16.246-56.535 18.164zM160.728 231.195a94.334 94.334 0 01-6.726.322l-.015-1.179c28.911-.361 51.83-14.08 65.968-25.524 15.33-12.41 23.912-24.877 24.002-25.002l.98.662c-.086.126-8.766 12.737-24.23 25.255-13.176 10.663-33.895 23.278-59.979 25.466z"/></g><path d="M124.476 270.788a24.561 24.561 0 01-12.843 5.5l-54.066 6.473c-5.11.612-9.965-.265-14.01-2.443-4.968-2.679-8.7-7.15-10.163-12.84-18.462-71.948-21.532-147.59-8.986-221.382 1.121-6.6 5.262-12.085 10.993-15.292a24.464 24.464 0 0112.01-3.085l56.068.107a23.54 23.54 0 0111.468 2.987c-17.954 79.625-14.656 162.835 9.529 239.975z" fill="url(#prefix__paint0_linear_275_10)"/><path d="M127.319 270.453a24.468 24.468 0 01-12.809 5.49l-53.911 6.455c-5.094.609-9.936-.266-13.97-2.443-4.952-2.679-8.676-7.14-10.134-12.822-18.412-71.844-21.475-147.375-8.97-221.057 1.117-6.591 5.249-12.068 10.96-15.271a24.368 24.368 0 0111.975-3.081l55.908.107a23.435 23.435 0 0111.436 2.983c-17.9 79.512-14.607 162.604 9.515 239.639z" fill="url(#prefix__paint1_linear_275_10)"/><path d="M135.662 256.15c-.933 5.679-4.004 10.673-8.343 14.302a24.46 24.46 0 01-12.809 5.491l-53.911 6.454c-5.094.61-9.936-.265-13.97-2.442 19.542-83.618 16.767-168.188-8.146-249.18 3.513-1.969 7.617-3.06 11.976-3.051l55.908.107a23.487 23.487 0 0111.438 3.022c5.48 3.069 9.622 8.285 11.086 14.55 16.076 69.049 18.363 140.04 6.771 210.747z" fill="url(#prefix__paint2_linear_275_10)"/><path d="M50.901 281.785c19.195-84.763 16.322-170.561-8.445-252.714a23.747 23.747 0 00-3.97 1.768c24.913 80.994 27.688 165.582 8.147 249.202a22.193 22.193 0 004.268 1.744z" fill="url(#prefix__paint3_linear_275_10)"/><path d="M155.542 97.2l3.908 107.772c.344 9.487-7.104 17.939-16.782 18.86l-93.612 8.948c-1.73.165-3.475.126-5.196-.117-8.418-1.272-15.12-7.838-15.428-16.33l-4.165-114.836c-.089-2.453.636-4.656 1.506-6.823 2.691-6.75 9.687-11.477 17.814-11.68l93.822-2.272c9.699-.235 17.79 6.991 18.133 16.478z" fill="url(#prefix__paint4_linear_275_10)"/><path d="M169.78 204.544c.344 9.455-7.023 17.858-16.618 18.776l-92.695 8.889c-10.612 1.016-19.427-6.322-19.792-16.395l-4.15-114.384c-.364-10.072 7.915-18.448 18.554-18.705l92.967-2.257a17.428 17.428 0 0112.375 4.694 17.273 17.273 0 015.465 12.009l3.894 107.373z" fill="url(#prefix__paint5_linear_275_10)"/><path d="M162.049 97.026c-.261-7.226-6.553-12.927-13.899-12.734l-93.204 2.437c-8.105.214-14.5 6.596-14.22 14.261l4.12 113.739c.277 7.664 7.024 13.265 15.11 12.51l93.102-8.68c7.328-.684 13.141-7.092 12.879-14.318l-3.888-107.215z" fill="url(#prefix__paint6_linear_275_10)"/><path style="mix-blend-mode:multiply" opacity=".2" d="M158.334 100.208a12.461 12.461 0 00-3.973-8.665 12.57 12.57 0 00-8.955-3.352l-87.893 2.465c-7.626.214-13.87 6.245-13.61 13.466l3.883 107.039c.262 7.221 6.952 12.51 14.56 11.814l87.519-7.996c6.936-.634 12.388-6.684 12.14-13.515l-3.671-101.256z" fill="url(#prefix__paint7_linear_275_10)"/><path style="mix-blend-mode:multiply" opacity=".3" d="M43.912 232.677c-8.416-1.272-15.176-7.849-15.48-16.341l-4.166-114.838c-.088-2.453.631-4.822 1.499-6.983 2.613 4.393 5.014 11.177 4.284 21.247-1.561 21.547.597 27.54 4.566 42.684 3.956 15.099-2.053 31.754-1.492 43.038.478 9.658-2.004 25.543 10.79 31.193z" fill="url(#prefix__paint8_linear_275_10)"/><path opacity=".7" d="M146.416 144.944c-.237-6.519-3.035-12.595-7.882-17.111a25.389 25.389 0 00-17.879-6.825c-6.158.117-11.918 2.395-16.382 6.453a26.066 26.066 0 00-16.553-5.465c-6.566.127-12.68 2.636-17.312 7.096-.19.18-.373.36-.555.548-9.454 9.684-9.263 24.861.43 34.459l24.574 22.496a16.439 16.439 0 0011.602 4.194 16.423 16.423 0 0011.251-5.051l22.042-23.26a.398.398 0 01.041-.051c.081-.078.155-.164.23-.242l.753-.797-.029-.019a23.923 23.923 0 005.669-16.425zm-15.437 13.833l-11.91.357c-.348.01-.706-.703-.99-.889l-5.2-3.691-3.271 5.465-8.661 14.46c-.291.492-.823.651-1.389.67a6.926 6.926 0 01-.933-.045c-.724-.178-1.707-.795-1.734-1.521l-1.028-28.405-3.484 6.628-2.83 5.212c-.285.492-.591.909-1.167.926l-20.934.616c-.933.027-1.71-.804-1.743-1.715-.034-.91.712-1.785 1.647-1.811l20.04-.568 2.457-4.136 6.964-11.739a1.55 1.55 0 011.754-.75c.73.185 1.148.815 1.175 1.541l1.03 28.413 5.639-9.329 4.413-7.346a1.667 1.667 0 011.076-.762c.445-.107.947.489 1.325.736l6.234 4.549 11.39-.329c.907-.027 1.671.79 1.703 1.683.032.892-.665 1.754-1.573 1.78z" fill="#fff"/><path d="M135.257 191.394c-17.667-17.139-39.17-11.119-48.633-28.593-10.148-18.745 9.094-35.831 1.533-59.474-2.128-6.652-5.905-12.33-10.627-17.188l-22.58.59c-8.106.215-14.5 6.597-14.221 14.262l4.117 113.738c.278 7.664 7.024 13.265 15.11 12.509l90.058-8.393c-3.177-13.188-8.838-21.705-14.757-27.451z" fill="#fff" opacity=".5"/><path d="M260.074 67.222a1.124 1.124 0 01-.79-.326 1.106 1.106 0 01-.327-.787v-2.225a1.118 1.118 0 012.234 0v2.225a1.111 1.111 0 01-1.117 1.113zM260.074 94.635a1.118 1.118 0 01-1.117-1.112v-4.57a1.118 1.118 0 012.234 0v4.574a1.12 1.12 0 01-1.117 1.108zm0-9.138a1.118 1.118 0 01-1.117-1.113v-4.573a1.118 1.118 0 012.234 0v4.57a1.098 1.098 0 01-.326.788 1.118 1.118 0 01-.791.328zm0-9.138a1.118 1.118 0 01-1.117-1.112v-4.57a1.118 1.118 0 012.234 0v4.57a1.112 1.112 0 01-1.117 1.112zM257.84 101.495a1.12 1.12 0 01-1.134-1.096 1.113 1.113 0 011.101-1.128l1.15-.035v-1.145a1.112 1.112 0 011.117-1.112c.296 0 .581.117.79.325.21.209.327.492.327.787v2.224c0 .29-.113.568-.315.775a1.122 1.122 0 01-.769.338l-2.233.066-.034.001zM110.056 105.925a1.111 1.111 0 01-.034-2.224l4.346-.13a1.118 1.118 0 011.06.653 1.114 1.114 0 01-.992 1.57l-4.346.131h-.034zm8.693-.26a1.12 1.12 0 01-.775-.325 1.109 1.109 0 01-.023-1.551c.199-.211.474-.336.765-.348l4.346-.131a1.136 1.136 0 01.804.299 1.12 1.12 0 01.354.779 1.107 1.107 0 01-.663 1.05c-.135.06-.28.092-.427.096l-4.348.131h-.033zm8.692-.261a1.117 1.117 0 01-1.133-1.096 1.116 1.116 0 011.101-1.128l4.346-.13a1.118 1.118 0 011.16 1.078 1.125 1.125 0 01-.307.8 1.125 1.125 0 01-.786.346l-4.346.13h-.035zm8.694-.26a1.113 1.113 0 01-1.134-1.096 1.116 1.116 0 011.102-1.129l4.346-.129a1.129 1.129 0 011.15 1.078 1.11 1.11 0 01-1.084 1.145l-4.346.13-.034.001zm8.693-.261a1.11 1.11 0 01-.795-.314 1.105 1.105 0 01-.339-.781 1.116 1.116 0 011.101-1.129l4.346-.131a1.13 1.13 0 011.151 1.079 1.115 1.115 0 01-1.084 1.145l-4.346.13-.034.001zm8.694-.261a1.111 1.111 0 01-.034-2.224l4.348-.13a1.116 1.116 0 011.086 1.508 1.108 1.108 0 01-.592.621c-.135.059-.28.091-.428.094l-4.346.131h-.034zm8.693-.26a1.12 1.12 0 01-.775-.325 1.109 1.109 0 01-.023-1.551c.199-.211.474-.336.765-.348l4.346-.131a1.136 1.136 0 01.804.299 1.12 1.12 0 01.354.779 1.107 1.107 0 01-.663 1.05c-.135.06-.28.092-.427.096l-4.347.131h-.034zm8.692-.261a1.121 1.121 0 01-.794-.314 1.109 1.109 0 01-.023-1.573c.206-.212.489-.333.785-.337l4.346-.13a1.118 1.118 0 011.16 1.078 1.098 1.098 0 01-.307.799 1.112 1.112 0 01-.786.346l-4.346.13-.035.001zm8.694-.26a1.125 1.125 0 01-.795-.314 1.109 1.109 0 01-.024-1.573c.207-.212.489-.333.786-.338l4.347-.129a1.112 1.112 0 01.853 1.877 1.109 1.109 0 01-.359.251c-.135.06-.28.092-.427.095l-4.347.13-.034.001zm8.693-.261a1.121 1.121 0 01-1.042-.671 1.116 1.116 0 011.009-1.553l4.347-.131a1.112 1.112 0 11.067 2.225l-4.346.129-.035.001zm8.693-.261a1.12 1.12 0 01-.775-.325 1.11 1.11 0 01.742-1.899l4.347-.13h.034a1.11 1.11 0 01.033 2.223l-4.347.131h-.034zm8.693-.26a1.122 1.122 0 01-.795-.315 1.11 1.11 0 01.763-1.91l4.346-.13a1.127 1.127 0 011.061.653 1.11 1.11 0 01-.566 1.476 1.13 1.13 0 01-.428.095l-4.346.131h-.035zm8.694-.261a1.122 1.122 0 01-.795-.314 1.109 1.109 0 01-.023-1.573c.206-.212.489-.333.785-.337l4.346-.13a1.118 1.118 0 011.16 1.078 1.098 1.098 0 01-.307.799 1.112 1.112 0 01-.786.346l-4.346.13-.034.001zm8.693-.26a1.122 1.122 0 01-.795-.315 1.108 1.108 0 01-.023-1.573c.207-.211.489-.333.786-.337l4.346-.13a1.125 1.125 0 011.061.654 1.11 1.11 0 01-.567 1.475c-.135.06-.28.092-.427.095l-4.347.13-.034.001zm8.693-.261a1.101 1.101 0 01-.794-.314 1.125 1.125 0 01-.34-.781 1.116 1.116 0 011.101-1.129l4.346-.131a1.12 1.12 0 011.059.653 1.097 1.097 0 01.026.855 1.108 1.108 0 01-1.017.716l-4.346.13-.035.001zm8.693-.261a1.124 1.124 0 01-.775-.325 1.11 1.11 0 01.742-1.899l4.347-.13a1.12 1.12 0 011.059.653c.06.134.094.278.099.424a1.125 1.125 0 01-.306.799 1.112 1.112 0 01-.785.347l-4.347.131h-.034zm8.693-.261a1.117 1.117 0 01-1.134-1.095 1.12 1.12 0 011.101-1.13l4.347-.129a1.125 1.125 0 01.805.299 1.118 1.118 0 01.355.779 1.116 1.116 0 01-1.093 1.146l-4.346.13h-.035zM103.476 108.348a1.12 1.12 0 01-.79-.326 1.105 1.105 0 01-.327-.786v-2.225a1.113 1.113 0 011.084-1.112l2.233-.067a1.136 1.136 0 01.804.299 1.12 1.12 0 01.354.779 1.107 1.107 0 01-.663 1.05c-.135.06-.28.092-.427.096l-1.151.034v1.146c0 .295-.117.578-.327.786a1.12 1.12 0 01-.79.326zM103.476 117.877c-.296 0-.58-.118-.79-.326a1.11 1.11 0 01-.327-.787V112a1.11 1.11 0 011.117-1.112 1.11 1.11 0 011.117 1.112v4.764c0 .295-.117.578-.327.787-.21.208-.494.326-.79.326zM103.476 124.867a1.12 1.12 0 01-.79-.326 1.11 1.11 0 01-.327-.787v-2.224c0-.295.117-.578.327-.787a1.124 1.124 0 011.58 0c.21.209.327.492.327.787v2.224c0 .295-.117.578-.327.787a1.12 1.12 0 01-.79.326zM203.563 69.209a1.12 1.12 0 01-.79-.326 1.108 1.108 0 01-.327-.786v-2.225c0-.295.117-.578.327-.787a1.12 1.12 0 011.907.787v2.225a1.111 1.111 0 01-1.117 1.112zM203.563 96.306a1.119 1.119 0 01-1.117-1.113v-4.516c0-.295.117-.578.327-.787a1.12 1.12 0 011.907.787v4.516a1.112 1.112 0 01-1.117 1.113zm0-9.032a1.124 1.124 0 01-.79-.326 1.105 1.105 0 01-.327-.787v-4.516c0-.295.117-.578.327-.787a1.12 1.12 0 011.907.787v4.516a1.11 1.11 0 01-.69 1.028c-.135.056-.28.085-.427.085zm0-9.033a1.12 1.12 0 01-.79-.326 1.108 1.108 0 01-.327-.786v-4.516c0-.295.117-.578.327-.786a1.12 1.12 0 011.907.786v4.52a1.112 1.112 0 01-1.117 1.108z" fill="#fff"/><path d="M203.563 103.046a1.118 1.118 0 01-1.117-1.112v-2.225c0-.295.117-.578.327-.787a1.12 1.12 0 011.907.787v2.225c0 .295-.118.578-.327.786a1.12 1.12 0 01-.79.326zM144.329 70.128a1.12 1.12 0 01-.79-.325 1.108 1.108 0 01-.327-.787v-2.225c0-.294.117-.577.327-.786a1.12 1.12 0 011.907.787v2.224a1.112 1.112 0 01-1.117 1.112zM144.329 97.89a1.12 1.12 0 01-.79-.325 1.108 1.108 0 01-.327-.787v-4.627c0-.295.117-.578.327-.787a1.12 1.12 0 011.907.787v4.627a1.112 1.112 0 01-1.117 1.112zm0-9.254a1.12 1.12 0 01-.79-.326 1.108 1.108 0 01-.327-.786v-4.627c0-.295.117-.578.327-.787a1.12 1.12 0 011.907.787v4.629a1.118 1.118 0 01-1.117 1.11zm0-9.254a1.12 1.12 0 01-1.033-.687 1.11 1.11 0 01-.084-.425v-4.626c0-.295.117-.578.327-.787a1.12 1.12 0 011.907.787v4.626a1.112 1.112 0 01-1.117 1.112zM144.329 104.742a1.096 1.096 0 01-.79-.326 1.105 1.105 0 01-.327-.787v-2.225a1.118 1.118 0 012.234 0v2.225a1.114 1.114 0 01-1.117 1.113z" fill="#fff"/><path d="M242.571 30.121c9.644-8.488 24.648-7.582 33.544 1.528 8.628 8.842 8.628 22.538 0 31.053-8.891 8.775-23.9 9.114-33.544.263-9.955-9.139-9.955-24.081 0-32.844z" fill="url(#prefix__paint9_linear_275_10)"/><path d="M243.597 28.975c9.636-8.48 24.634-7.566 33.518 1.543 8.622 8.84 8.622 22.532 0 31.04-8.885 8.768-23.883 9.1-33.519.248-9.947-9.14-9.947-24.076.001-32.831z" fill="url(#prefix__paint10_linear_275_10)"/><path d="M246.019 31.435c8.217-7.24 21.022-6.484 28.621 1.291 7.377 7.553 7.377 19.258 0 26.525-7.596 7.483-20.401 7.749-28.617.187-8.476-7.798-8.476-20.532-.004-28.003z" fill="#fff" opacity=".5"/><path d="M244.996 33.132c8.223-7.252 21.036-6.5 28.638 1.274 5.966 6.102 7.104 14.911 3.445 21.9 4.82-7.203 4.011-16.976-2.44-23.575-7.596-7.776-20.401-8.537-28.617-1.292a18.928 18.928 0 00-4.21 5.304 19.104 19.104 0 013.184-3.61z" fill="#fff" opacity=".3"/><path d="M268.419 50.342c0 4.548-3.73 8.285-8.345 8.346-4.628.06-8.395-3.6-8.395-8.177 0-4.576 8.395-17.788 8.395-17.788s8.345 13.075 8.345 17.62z" fill="#fff"/><path d="M185.169 30.27c10.055-8.668 25.701-7.743 34.969 1.559 8.992 9.023 8.992 23.005 0 31.7-9.268 8.962-24.914 9.314-34.969.278-10.383-9.33-10.383-24.589 0-33.538z" fill="url(#prefix__paint11_linear_275_10)"/><path d="M186.238 29.098c10.048-8.66 25.682-7.729 34.942 1.573 8.985 9.025 8.985 23 0 31.689-9.256 8.954-24.894 9.299-34.942.262-10.373-9.329-10.373-24.583 0-33.524z" fill="url(#prefix__paint12_linear_275_10)"/><path d="M188.765 31.61c8.566-7.393 21.915-6.62 29.832 1.317 7.688 7.71 7.688 19.658 0 27.08-7.917 7.641-21.266 7.916-29.832.198-8.836-7.961-8.836-20.965 0-28.595z" fill="#fff" opacity=".5"/><path d="M187.697 33.343c8.573-7.405 21.932-6.637 29.855 1.3 6.219 6.228 7.408 15.216 3.587 22.357 5.024-7.355 4.181-17.332-2.542-24.072-7.917-7.939-21.266-8.715-29.832-1.317a19.383 19.383 0 00-4.389 5.42 19.763 19.763 0 013.321-3.688z" fill="#fff" opacity=".3"/><path d="M196.499 37.87c-1.543.03-2.812 1.393-2.815 3.057l-.014 13.54c0 1.65 1.261 2.958 2.799 2.92 1.538-.037 2.798-1.4 2.804-3.047l.028-13.524c.006-1.655-1.258-2.975-2.802-2.946zM190.538 40.842h.023c-1.068.022-1.884.972-1.884 2.118v3.417l-.43.018c-.656.014-1.1.602-1.1 1.304v.066c0 .702.444 1.252 1.099 1.237l.43-.018v3.66c0 1.142.861 2.046 1.925 2.022l-.068-.01c1.065-.025 1.83-.977 1.83-2.117l.009-9.665c.002-1.15-.767-2.053-1.834-2.032zM210.611 37.607c-1.533.029-2.745 1.393-2.751 3.047l-.048 13.497c-.006 1.644 1.193 2.944 2.72 2.906 1.527-.037 2.732-1.4 2.739-3.04l.061-13.476c.007-1.65-1.191-2.964-2.721-2.934zM218.762 45.734l-.323.027.018-3.384c.005-1.137-.87-2.046-1.923-2.025h-.047c-1.055.02-1.937.965-1.937 2.099l-.044 9.615c-.006 1.135.848 2.036 1.899 2.01h.058c1.051-.024 1.937-.964 1.942-2.094l.02-3.635.323-.026c.645-.014.987-.606.991-1.302v-.064c.008-.692-.332-1.23-.977-1.221zM200.335 49.513l6.435-.158.012-3.893-6.439.15-.008 3.9z" fill="#fff"/><path d="M125.286 30.424c10.493-8.854 26.818-7.91 36.488 1.59 9.378 9.216 9.378 23.495 0 32.377-9.669 9.157-25.993 9.522-36.488.295-10.836-9.528-10.836-25.118 0-34.262z" fill="url(#prefix__paint13_linear_275_10)"/><path d="M126.403 29.232c10.484-8.846 26.8-7.896 36.457 1.607 9.371 9.216 9.371 23.49 0 32.362-9.66 9.15-25.973 9.507-36.457.28-10.828-9.534-10.828-25.118 0-34.25z" fill="url(#prefix__paint14_linear_275_10)"/><path d="M129.039 31.794c8.939-7.558 22.867-6.765 31.126 1.342 8.019 7.873 8.019 20.076 0 27.657-8.259 7.807-22.187 8.095-31.126.214-9.221-8.133-9.221-21.418 0-29.213z" fill="#fff" opacity=".5"/><path d="M127.925 33.564c8.946-7.566 22.884-6.781 31.15 1.324 6.486 6.361 7.727 15.546 3.742 22.834 5.24-7.513 4.361-17.702-2.652-24.586-8.259-8.108-22.187-8.9-31.126-1.343a19.868 19.868 0 00-4.58 5.54 20.227 20.227 0 013.466-3.77z" fill="#fff" opacity=".3"/><path d="M153.107 58.123l3.966-.004V37.416l-3.966-.07v20.777zM145.985 58.129l4.017-.004V47.71l-4.017-.034V58.13zM138.772 58.133l4.068-.003V35.178l-4.068-.08v23.035zM131.467 58.14l4.121-.003V38.464l-4.121-.068V58.14z" fill="#fff"/><path d="M182.167 193.185c-3.476 3.698-7.758 9.277-10.36 16.931-2.315 6.806-2.019 11.488-5.105 12.811-3.828 1.64-8.17-3.902-14.193-6.96-6.123-3.108-16.381-4.87-34.108 2.742a241.25 241.25 0 00-.635 2.109c11.81 8.662 22.587 14.099 30.505 17.505 19.555 8.413 26.33 6.454 29.447 5.062 4.833-2.159 7.3-5.83 9.75-9.294 5.733-8.106 14.38-19.32 27.219-32.979l-32.52-7.927z" fill="url(#prefix__paint15_linear_275_10)"/><path d="M120.541 218.752s-2.455-5.126-3.938-5.758c-1.483-.632-12.209 14.724-12.209 14.724s.384 1.061 4.305-.99 11.826-5.969 11.842-7.976z" fill="url(#prefix__paint16_linear_275_10)"/><path d="M225.84 179.973c8.611 2.597 23.156 8.608 28.777 21.861 2.318 5.465 2.829 11.474-2.357 36.783a584.907 584.907 0 01-9.158 38.148l-2.466.58a58.954 58.954 0 01-7.482-16.288c-3.093-10.866-2.233-19.824-1.839-22.941 1.321-10.45 4.628-12.275 4.419-17.11-.302-6.915-7.642-16.281-39.162-26.76l29.268-14.273z" fill="url(#prefix__paint17_linear_275_10)"/><path d="M239.303 276.136s-.873 5.611-.006 6.965c.866 1.355 18.42-5.309 18.42-5.309s.284-1.092-4.113-1.597c-4.396-.505-13.15-1.708-14.301-.059z" fill="url(#prefix__paint18_linear_275_10)"/><path d="M224.246 116.41c3.817-1.841 11.214 6.223 11.571 6.62 8.713 9.644 5.241 19.117 11.386 21.854 2.973 1.323 3.653-.953 20.069-5.293 1.415-.373 4.157-1.083 6.876-3.28 2.348-1.899 3.681-4.102 4.413-5.558.291-.017 3.674-.179 4.299 1.302.613 1.456-1.788 3.67-3.028 4.813a18.058 18.058 0 01-4.143 2.887c-4.774 2.331-7.735 7.197-11.353 10.992-2.411 2.532-10.496 11.02-19.035 10.588-10.44-.528-16.96-14.173-18.853-18.139-5.043-10.549-6.516-24.701-2.202-26.786z" fill="url(#prefix__paint19_linear_275_10)"/><path d="M179.2 179.474c.511 1.773 2.008 7.829-.957 14.394a20.79 20.79 0 01-6.673 8.173c2.755.485 5.45 1.26 8.04 2.311 14.791 6.01 20.372 18.908 27.124 17.093.861-.233 2.121-.806 3.411-2.44l7.817-23.924-38.762-15.607z" fill="url(#prefix__paint20_linear_275_10)"/><path d="M178.141 177.364c-1.135 4.326 2.917 8.963 6.144 12.655 4.805 5.499 9.162 6.742 21.396 14.131 4.305 2.6 7.75 4.849 9.957 6.328 8.592-3.386 14.448-7.693 18.007-10.757 4.134-3.558 12.068-10.388 10.38-15.186-.835-2.375-3.567-2.943-8.476-4.887-10.966-4.34-12.378-7.456-18.68-10.034-14.911-6.098-36.505-.716-38.728 7.75z" fill="url(#prefix__paint21_linear_275_10)"/><path d="M196.148 114.723c-3.286 2.601-4.061 5.433-7.707 15.799-7.306 20.762-18.757 56.531-17.078 57.599 1.914 1.217 4.527-2.95 13.474-7.36 3.172-1.562 15.208-7.495 29.53-6.349 9.958.796 15.409 4.566 17.371 2.109 1.846-2.312-2.778-5.894-4.226-13.71-2.054-11.087 5.261-14.638 4.711-29.554-.16-4.357-.373-8.627-3.239-12.839-4.412-6.486-11.887-8.091-14.264-8.601-2.132-.457-11.721-2.515-18.572 2.906z" fill="url(#prefix__paint22_linear_275_10)"/><path d="M219.167 103.493a22.183 22.183 0 01-5.119 4.647c-4.111 2.679-7.046 2.571-7.116 3.627-.153 2.293 13.614 5.659 14.564 3.581.503-1.099-3.022-2.761-2.892-5.7.098-2.218 2.225-3.941 4.026-5.058l-3.463-1.097z" fill="url(#prefix__paint23_linear_275_10)"/><path style="mix-blend-mode:multiply" opacity=".3" d="M209.908 150.474c-2.773-7.502-11.571-7.105-16.121-12.84-2.401-3.025-3.875-8.084-1.702-17.136-.961 2.275-2.017 5.398-3.644 10.024-7.306 20.762-18.757 56.531-17.078 57.6 1.914 1.216 4.527-2.951 13.474-7.361 2.862-1.41 12.944-6.376 25.409-6.491-1.217-2.391-1.766-4.591-1.951-6.543-.698-7.415 3.873-11.136 1.613-17.253z" fill="url(#prefix__paint24_linear_275_10)"/><path d="M223.154 101.84c.922-1.162 1.027-3.227.027-4.558-.861-1.145-2.254-1.338-3.087-1.453-2.416-.336-5.497.6-6.612 2.794-.661 1.301.637 4.066.839 4.562.228.562.662.763 1.057 1.192.547.595 1.405 1.543 2.804 3.126a9.937 9.937 0 01.589-1.624 8.81 8.81 0 011.196-1.896c1.299-1.503 2.312-1.041 3.187-2.143z" fill="url(#prefix__paint25_linear_275_10)"/><path d="M216.165 106.152s1.531 2.638 4.707 2.508c2.843-.118 3.409-6.446 1.628-7.834-.595-.463-1.802-.678-2.799-.428-.585.149-.789.384-1.75.609-.887.207-1.133.108-1.406.322-.339.271-.599.949-.087 2.815-.528-.558-1.174-.783-1.639-.578a.974.974 0 00-.387.358c-.408.716.233 1.656 1.733 2.228z" fill="url(#prefix__paint26_linear_275_10)"/><path d="M208.112 114.657c1.638 3.263-3.901 11.059-10.905 14.197-4.982 2.234-7.642.734-21.634 3.429-4.364.84-7.385 1.618-8.803 4.112-.999 1.758-.267 2.754-.185 8.545.038 2.672 0 6.215-.27 11.03-.226 3.985.203 6.015.997 7.524 1.57 2.99 3.927 3.588 3.937 5.894.006 1.741-1.322 3.596-2.583 3.663-1.474.079-2.698-2.287-3.66-4.36a18.04 18.04 0 01-1.469-4.823c-.741-5.242-4.466-9.556-6.967-14.159-3.337-6.145-6.661-15.285-4.198-21.302 2.709-6.607 11.165-8.465 28.067-12.192 12.361-2.709 25.628-5.631 27.673-1.558z" fill="url(#prefix__paint27_linear_275_10)"/><defs><linearGradient id="prefix__paint0_linear_275_10" x1="18.047" y1="156.441" x2="121.081" y2="152.301" gradientUnits="userSpaceOnUse"><stop stop-color="#444B8C"/><stop offset="1" stop-color="#26264F"/></linearGradient><linearGradient id="prefix__paint1_linear_275_10" x1="151.72" y1="145.492" x2="-97.233" y2="169.891" gradientUnits="userSpaceOnUse"><stop stop-color="#444B8C"/><stop offset="1" stop-color="#26264F"/></linearGradient><linearGradient id="prefix__paint2_linear_275_10" x1="42.947" y1="155.379" x2="143.622" y2="151.334" gradientUnits="userSpaceOnUse"><stop stop-color="#444B8C"/><stop offset="1" stop-color="#26264F"/></linearGradient><linearGradient id="prefix__paint3_linear_275_10" x1="42.948" y1="155.39" x2="64.026" y2="154.543" gradientUnits="userSpaceOnUse"><stop stop-color="#444B8C"/><stop offset="1" stop-color="#26264F"/></linearGradient><linearGradient id="prefix__paint4_linear_275_10" x1="113.327" y1="-23.321" x2="96.135" y2="125.22" gradientUnits="userSpaceOnUse"><stop stop-color="#444B8C"/><stop offset=".48" stop-color="#35396E"/><stop offset="1" stop-color="#26264F"/></linearGradient><linearGradient id="prefix__paint5_linear_275_10" x1="105.608" y1="181.565" x2="117.339" y2="390.855" gradientUnits="userSpaceOnUse"><stop stop-color="#444B8C"/><stop offset="1" stop-color="#26264F"/></linearGradient><linearGradient id="prefix__paint6_linear_275_10" x1="148.332" y1="84.758" x2="59.655" y2="219.698" gradientUnits="userSpaceOnUse"><stop stop-color="#FF9085"/><stop offset="1" stop-color="#FB6FBB"/></linearGradient><linearGradient id="prefix__paint7_linear_275_10" x1="46.674" y1="157.119" x2="161.176" y2="152.519" gradientUnits="userSpaceOnUse"><stop stop-color="#FF9085"/><stop offset="1" stop-color="#FB6FBB"/></linearGradient><linearGradient id="prefix__paint8_linear_275_10" x1="47.621" y1="57.855" x2="33.308" y2="181.525" gradientUnits="userSpaceOnUse"><stop stop-color="#444B8C"/><stop offset="1" stop-color="#26264F"/></linearGradient><linearGradient id="prefix__paint9_linear_275_10" x1="226.799" y1="55.593" x2="305.993" y2="33.771" gradientUnits="userSpaceOnUse"><stop stop-color="#444B8C"/><stop offset="1" stop-color="#26264F"/></linearGradient><linearGradient id="prefix__paint10_linear_275_10" x1="-508.892" y1="3042.69" x2="-520.046" y2="3086.56" gradientUnits="userSpaceOnUse"><stop stop-color="#E38DDD"/><stop offset="1" stop-color="#9571F6"/></linearGradient><linearGradient id="prefix__paint11_linear_275_10" x1="168.763" y1="56.453" x2="251.223" y2="33.731" gradientUnits="userSpaceOnUse"><stop stop-color="#444B8C"/><stop offset="1" stop-color="#26264F"/></linearGradient><linearGradient id="prefix__paint12_linear_275_10" x1="-582.79" y1="3110.32" x2="-594.194" y2="3155.17" gradientUnits="userSpaceOnUse"><stop stop-color="#E38DDD"/><stop offset="1" stop-color="#9571F6"/></linearGradient><linearGradient id="prefix__paint13_linear_275_10" x1="108.205" y1="57.358" x2="194.144" y2="33.677" gradientUnits="userSpaceOnUse"><stop stop-color="#444B8C"/><stop offset="1" stop-color="#26264F"/></linearGradient><linearGradient id="prefix__paint14_linear_275_10" x1="-659.932" y1="3181.14" x2="-671.598" y2="3227.02" gradientUnits="userSpaceOnUse"><stop stop-color="#E38DDD"/><stop offset="1" stop-color="#9571F6"/></linearGradient><linearGradient id="prefix__paint15_linear_275_10" x1="164.394" y1="270.495" x2="169.432" y2="105.357" gradientUnits="userSpaceOnUse"><stop stop-color="#FFC444"/><stop offset="1" stop-color="#F36F56"/></linearGradient><linearGradient id="prefix__paint16_linear_275_10" x1="120.072" y1="199.846" x2="109.354" y2="233.198" gradientUnits="userSpaceOnUse"><stop stop-color="#E38DDD"/><stop offset="1" stop-color="#9571F6"/></linearGradient><linearGradient id="prefix__paint17_linear_275_10" x1="224.296" y1="272.324" x2="229.335" y2="107.185" gradientUnits="userSpaceOnUse"><stop stop-color="#FFC444"/><stop offset="1" stop-color="#F36F56"/></linearGradient><linearGradient id="prefix__paint18_linear_275_10" x1="259.034" y1="244.503" x2="248.316" y2="277.855" gradientUnits="userSpaceOnUse"><stop stop-color="#E38DDD"/><stop offset="1" stop-color="#9571F6"/></linearGradient><linearGradient id="prefix__paint19_linear_275_10" x1="254.595" y1="164.415" x2="245.776" y2="23.949" gradientUnits="userSpaceOnUse"><stop stop-color="#FFC444"/><stop offset="1" stop-color="#F36F56"/></linearGradient><linearGradient id="prefix__paint20_linear_275_10" x1="201.98" y1="230.458" x2="193.364" y2="191.997" gradientUnits="userSpaceOnUse"><stop stop-color="#AB316D"/><stop offset="1" stop-color="#792D3D"/></linearGradient><linearGradient id="prefix__paint21_linear_275_10" x1="177.947" y1="188.739" x2="244.257" y2="188.739" gradientUnits="userSpaceOnUse"><stop stop-color="#AB316D"/><stop offset="1" stop-color="#792D3D"/></linearGradient><linearGradient id="prefix__paint22_linear_275_10" x1="234.943" y1="115.543" x2="180.148" y2="193.636" gradientUnits="userSpaceOnUse"><stop stop-color="#AA80F9"/><stop offset="1" stop-color="#6165D7"/></linearGradient><linearGradient id="prefix__paint23_linear_275_10" x1="212.357" y1="122.516" x2="217.539" y2="97.339" gradientUnits="userSpaceOnUse"><stop stop-color="#FFC444"/><stop offset="1" stop-color="#F36F56"/></linearGradient><linearGradient id="prefix__paint24_linear_275_10" x1="212.79" y1="138.623" x2="154.942" y2="182.605" gradientUnits="userSpaceOnUse"><stop stop-color="#AA80F9"/><stop offset="1" stop-color="#6165D7"/></linearGradient><linearGradient id="prefix__paint25_linear_275_10" x1="212.025" y1="114.501" x2="219.509" y2="96.476" gradientUnits="userSpaceOnUse"><stop stop-color="#311944"/><stop offset="1" stop-color="#6B3976"/></linearGradient><linearGradient id="prefix__paint26_linear_275_10" x1="218.002" y1="100.15" x2="218.729" y2="126.63" gradientUnits="userSpaceOnUse"><stop stop-color="#FFC444"/><stop offset="1" stop-color="#F36F56"/></linearGradient><linearGradient id="prefix__paint27_linear_275_10" x1="182.752" y1="168.926" x2="173.933" y2="28.46" gradientUnits="userSpaceOnUse"><stop stop-color="#FFC444"/><stop offset="1" stop-color="#F36F56"/></linearGradient></defs></svg>