<svg width="64" height="64" viewBox="0 0 64 64" fill="none" xmlns="http://www.w3.org/2000/svg">
<g clip-path="url(#clip0_308_119)">
<rect width="64" height="64" rx="32" fill="#2B3595" fill-opacity="0.5"/>
<path d="M58.881 64.4106H5C5 64.4106 6.27792 51.4466 12.1232 47.2477C15.6165 44.7389 20.2992 43.1508 23.4957 42.285C25.6472 41.6948 27.1245 41.436 27.1245 41.436L39.0402 41.9412C39.0402 41.9412 40.4323 42.1965 42.4102 42.7823C44.8899 43.5159 48.2858 44.7725 51.023 46.7023C55.96 50.1687 58.881 64.4106 58.881 64.4106Z" fill="#4D7D80"/>
<path d="M39.1667 38.9318L39.039 41.9379C38.6909 42.1969 38.3249 42.4308 37.9436 42.6379C32.5911 45.5499 27.1233 41.4328 27.1233 41.4328L27.5657 31.0078L37.7835 37.9854L39.1667 38.9318Z" fill="#E69680"/>
<path d="M39.1666 38.9316L39.0389 41.9376C38.6909 42.1967 38.3248 42.4306 37.9436 42.6376C33.5756 40.69 30.5359 35.8896 30.5359 35.8896L37.7834 37.9874L39.1666 38.9316Z" fill="#302922"/>
<path d="M43.4878 25.7684C43.4878 25.7684 45.2798 23.8241 46.1601 25.8804C47.0404 27.9367 46.1243 31.99 43.555 31.2116L43.4878 25.7684Z" fill="#E06C5C"/>
<path d="M45.6752 17.2834C45.6752 17.2834 47.6273 18.0674 46.6832 20.2906C45.739 22.5138 45.8017 22.9718 46.0515 24.3618C46.3012 25.7517 45.1499 26.8314 44.7545 26.6779C44.3592 26.5245 40.9745 16.1286 45.6752 17.2834Z" fill="#302922"/>
<path d="M45.0087 32.9196C45.0087 32.9196 44.7545 39.1345 38.2887 38.8466C31.8644 38.5633 27.6991 33.3318 27.4818 33.0887L27.4751 33.082L27.4594 31.7727L27.3822 24.9777L27.3396 21.3455C27.3396 21.3455 26.7953 14.7857 33.0516 13.8583C37.619 13.1807 41.8358 14.1126 43.8798 16.5676C43.9458 16.6471 44.0097 16.7278 44.069 16.8106C44.7344 17.708 45.1149 18.7845 45.161 19.9007L45.0849 26.4191L45.067 28.0162L45.0087 32.9196Z" fill="#E69680"/>
<path d="M40.1334 31.4245C39.8113 31.4375 39.489 31.4081 39.1746 31.3371C37.3378 30.9373 36.1159 29.2965 36.0644 29.2259C36.029 29.1746 36.0149 29.1115 36.0253 29.0499C36.0357 28.9884 36.0696 28.9334 36.1199 28.8965C36.1702 28.8596 36.2329 28.8438 36.2947 28.8524C36.3565 28.861 36.4125 28.8933 36.4508 28.9426C36.462 28.9582 37.6201 30.5106 39.2766 30.869C40.933 31.2274 41.6286 30.2552 41.6286 30.2451C41.6664 30.1964 41.7216 30.1642 41.7827 30.1552C41.8437 30.1462 41.9058 30.161 41.9562 30.1966C42.0066 30.2323 42.0412 30.286 42.053 30.3465C42.0648 30.4071 42.0528 30.4699 42.0194 30.5218C41.9937 30.5598 41.409 31.3651 40.1334 31.4245Z" fill="#302922"/>
<path d="M40.392 32.8375C40.4635 32.8 40.5323 32.7577 40.5981 32.7109C40.6617 32.6602 40.7034 32.587 40.7146 32.5064C40.7257 32.4258 40.7055 32.344 40.658 32.2779C40.6105 32.2119 40.5394 32.1666 40.4594 32.1515C40.3795 32.1364 40.2968 32.1526 40.2285 32.1968C40.187 32.2271 39.2496 32.8688 38.2192 32.3447C38.1462 32.3158 38.065 32.315 37.9915 32.3425C37.918 32.3701 37.8573 32.4239 37.8212 32.4936C37.785 32.5633 37.7761 32.644 37.796 32.7199C37.816 32.7958 37.8634 32.8617 37.9291 32.9047C38.9998 33.4568 39.9798 33.0626 40.392 32.8375Z" fill="#E06C5C"/>
<path d="M40.6687 28.5001C40.1324 28.392 39.6075 28.2338 39.1007 28.0275C39.0419 27.9996 38.9959 27.9504 38.972 27.8899C38.9481 27.8293 38.9481 27.762 38.9721 27.7014C38.996 27.6409 39.042 27.5917 39.1009 27.5639C39.1597 27.536 39.2269 27.5316 39.2889 27.5515C40.251 27.9334 41.3049 28.1496 41.4516 27.9995C41.4499 27.9784 41.4469 27.9575 41.4427 27.9368C40.9543 25.7886 39.8556 25.5288 39.8444 25.5265C39.7854 25.5141 39.7325 25.4814 39.6949 25.4342C39.6573 25.387 39.6373 25.3282 39.6383 25.2678L39.6999 23.2764C39.702 23.2087 39.7309 23.1446 39.7803 23.0982C39.8296 23.0518 39.8954 23.0268 39.9631 23.0289C40.0309 23.031 40.095 23.0599 40.1414 23.1093C40.1878 23.1586 40.2127 23.2244 40.2107 23.2921L40.1547 25.0953C40.5758 25.2757 41.4987 25.8793 41.9411 27.8237C41.971 27.9223 41.972 28.0275 41.944 28.1267C41.916 28.226 41.8602 28.3151 41.7831 28.3837C41.5558 28.5785 41.1291 28.5796 40.6687 28.5001Z" fill="#302922"/>
<path d="M33.3818 21.0228C33.5242 21.3788 33.8007 21.6647 34.1518 21.8188C34.5029 21.973 34.9005 21.9832 35.259 21.8471C35.7396 21.6607 36.2369 21.5204 36.7441 21.4282C36.9244 21.3978 37.0967 21.3308 37.2502 21.2314C37.4038 21.132 37.5355 21.0024 37.6372 20.8503C37.7389 20.6983 37.8085 20.5271 37.8417 20.3472C37.875 20.1673 37.8711 19.9826 37.8305 19.8042C37.8305 19.8042 34.8322 19.401 33.3818 21.0228Z" fill="#302922"/>
<path d="M45.0724 21.5189C44.9001 21.8615 44.6001 22.1227 44.2371 22.2463C43.8741 22.3699 43.477 22.346 43.1315 22.1797C42.6684 21.9538 42.185 21.7723 41.6878 21.6376C41.5108 21.592 41.3449 21.5107 41.2003 21.3988C41.0558 21.2868 40.9356 21.1466 40.8471 20.9866C40.7586 20.8266 40.7037 20.6503 40.6857 20.4683C40.6677 20.2864 40.6871 20.1027 40.7425 19.9285C40.7425 19.9285 43.7643 19.7795 45.0724 21.5189Z" fill="#302922"/>
<path d="M35.6209 24.3256C35.5951 24.9472 35.2916 25.4389 34.9489 25.4244C34.6062 25.4098 34.3407 24.8935 34.3676 24.2719C34.3945 23.6503 34.6969 23.1586 35.0396 23.1732C35.3823 23.1877 35.6478 23.704 35.6209 24.3256Z" fill="#302922"/>
<path d="M42.1651 24.5858C42.1382 25.2074 41.8347 25.699 41.4875 25.6845C41.1403 25.6699 40.8793 25.1547 40.9051 24.5331C40.9308 23.9115 41.2344 23.4198 41.5827 23.4344C41.931 23.449 42.1908 23.9642 42.1651 24.5858Z" fill="#302922"/>
<path d="M29.6141 30.6523C29.5816 30.7195 28.6834 32.5832 27.4861 33.0883L27.4794 33.0816L27.4648 31.7723C27.4648 31.7723 28.4908 31.6413 29.6141 30.6523Z" fill="#302922"/>
<path d="M28.6587 26.2878C28.6587 26.2878 26.3146 22.8449 24.3837 25.3918C22.791 27.4896 25.3917 33.243 28.4403 31.4398L28.6587 26.2878Z" fill="#E69680"/>
<path d="M28.1437 30.4174C28.153 30.4186 28.1624 30.4186 28.1717 30.4174C28.2391 30.4125 28.3018 30.3812 28.3461 30.3301C28.3904 30.2791 28.4126 30.2127 28.408 30.1453C28.2176 27.2926 25.8701 26.2085 25.7704 26.1637C25.7091 26.1397 25.641 26.1401 25.5801 26.165C25.5192 26.1898 25.4701 26.2371 25.4431 26.2971C25.416 26.357 25.4131 26.4251 25.4348 26.4872C25.4565 26.5493 25.5013 26.6007 25.5598 26.6307C26.2249 26.967 26.7906 27.4714 27.2006 28.0938C27.6106 28.7162 27.8508 29.435 27.8973 30.1789C27.9012 30.2422 27.9286 30.3018 27.9742 30.3459C28.0198 30.3901 28.0803 30.4156 28.1437 30.4174Z" fill="#302922"/>
<path d="M25.8229 28.7675C25.8816 28.7701 25.9394 28.7523 25.9865 28.7171C26.2161 28.5469 26.9093 28.1325 27.345 28.2691C27.4099 28.2887 27.4799 28.2817 27.5397 28.2497C27.5995 28.2177 27.644 28.1632 27.6637 28.0983C27.6833 28.0334 27.6763 27.9634 27.6442 27.9036C27.6122 27.8438 27.5578 27.7993 27.4929 27.7797C26.7335 27.5501 25.786 28.2277 25.6807 28.3128C25.6382 28.3443 25.6066 28.3882 25.5901 28.4384C25.5736 28.4887 25.5732 28.5428 25.5888 28.5933C25.6044 28.6438 25.6353 28.6883 25.6772 28.7205C25.7192 28.7527 25.7701 28.7711 25.8229 28.7731V28.7675Z" fill="#302922"/>
<path d="M31.974 19.0078C31.974 19.0078 31.8833 20.2835 31.2012 21.9422C30.5192 23.6009 29.4731 23.5606 29.4272 24.5585C29.3812 25.5565 29.892 26.831 29.6142 26.9677C29.3364 27.1043 28.9724 27.2398 28.9724 27.2398C28.9724 27.2398 27.7012 25.179 27.3843 24.9774C27.0673 24.7758 26.4144 24.3267 25.879 24.4566C25.879 24.4566 24.9236 24.3805 24.1508 25.7883C24.1508 25.7883 23.4676 24.8117 23.9 23.4363C24.3323 22.0609 24.9987 22.5168 24.9617 21.128C24.9248 19.7392 25.0155 19.5118 25.0155 19.5118L31.974 19.0078Z" fill="#302922"/>
<path d="M31.5079 18.9801C31.5079 18.9801 25.2886 19.7361 25.0119 19.5087C24.7353 19.2814 25.4667 12.9142 28.0595 10.8668C30.6523 8.81945 36.9198 8.45657 40.9036 9.77593C44.8875 11.0953 45.6659 16.8319 45.6659 16.8319L31.5079 18.9801Z" fill="#9E3838"/>
<path d="M30.9056 19.0081C30.9056 19.0081 34.9174 21.0096 37.4251 21.0925C39.9328 21.1753 42.8437 19.2803 45.6941 19.9254C48.5445 20.5705 49.0294 21.4934 49.8784 21.0925C50.7274 20.6915 46.4176 16.4299 43.145 15.8285C39.8723 15.227 29.7845 18.3966 30.9056 19.0081Z" fill="#FFF4E6"/>
<path d="M26.3492 39.2642C26.3492 39.2642 27.8691 39.981 30.5358 43.1315C33.2025 46.2821 33.1454 50.8315 33.1454 50.8315L23.4888 42.2814C23.4888 42.2814 24.8339 39.8869 26.3492 39.2642Z" fill="#FFF4E6"/>
<path d="M33.1434 50.8314V64.4103H5C5 64.4103 6.27792 51.4463 12.1232 47.2474C15.6165 44.7386 20.2992 43.1504 23.4957 42.2847L33.1434 50.8314Z" fill="#312A45"/>
<path d="M39.0601 41.4327L38.7812 50.3446C38.7812 50.3446 42.3373 46.5534 42.4078 42.779C42.4078 42.779 41.2419 39.7314 39.1318 39.7314L39.0601 41.4327Z" fill="#FFF4E6"/>
<path d="M58.8808 64.4105H39.6302C39.3883 59.9786 38.7812 50.3433 38.7812 50.3433L42.4078 42.7788C44.8875 43.5124 48.2833 44.769 51.0206 46.6988C55.9598 50.1686 58.8808 64.4105 58.8808 64.4105Z" fill="#312A45"/>
</g>
<defs>
<clipPath id="clip0_308_119">
<rect width="64" height="64" rx="32" fill="white"/>
</clipPath>
</defs>
</svg>
