<svg xmlns="http://www.w3.org/2000/svg" fill="none" viewBox="0 0 9 10" xmlns:v="https://vecta.io/nano"><path d="M7.881 3.409c-.058.045-1.082.622-1.082 1.905 0 1.484 1.303 2.009 1.342 2.022-.006.032-.207.719-.687 1.419-.428.616-.875 1.231-1.555 1.231s-.855-.395-1.64-.395c-.765 0-1.037.408-1.659.408s-1.056-.57-1.555-1.27C.467 7.907 0 6.63 0 5.418c0-1.944 1.264-2.975 2.508-2.975.661 0 1.212.434 1.627.434.395 0 1.011-.46 1.763-.46.285 0 1.309.026 1.983.992zm-2.34-1.815c.311-.369.531-.881.531-1.393A.96.96 0 0 0 6.053 0c-.506.019-1.108.337-1.471.758-.285.324-.551.836-.551 1.355a.92.92 0 0 0 .019.181c.032.006.084.013.136.013.454 0 1.025-.304 1.355-.713z" fill="#000"/></svg>